<?xml version="1.0" standalone="no"?>
<!DOCTYPE svg PUBLIC "-//W3C//DTD SVG 20010904//EN"
 "http://www.w3.org/TR/2001/REC-SVG-20010904/DTD/svg10.dtd">
<svg version="1.0" xmlns="http://www.w3.org/2000/svg"
 width="640.000000pt" height="640.000000pt" viewBox="0 0 640.000000 640.000000"
 preserveAspectRatio="xMidYMid meet">
<metadata>
Created by potrace 1.14, written by Peter Selinger 2001-2017
</metadata>
<g transform="translate(0.000000,640.000000) scale(0.100000,-0.100000)"
fill="#000000" stroke="none">
<path d="M3630 6328 c0 -6 -3 -8 -6 -5 -4 3 -16 1 -28 -5 -11 -7 -23 -13 -26
-13 -3 -1 -18 -7 -35 -14 -16 -7 -37 -14 -45 -16 -8 -2 -15 -4 -15 -5 0 -1 -7
-3 -15 -5 -14 -4 -30 -7 -82 -21 -13 -3 -36 -7 -53 -10 -16 -2 -39 -7 -51 -9
-11 -2 -52 -7 -90 -10 -38 -4 -76 -9 -84 -12 -8 -3 -42 -7 -75 -9 -76 -5 -134
-11 -160 -17 -11 -3 -45 -8 -75 -13 -30 -4 -57 -8 -60 -9 -3 -1 -21 -5 -40 -9
-19 -5 -39 -11 -45 -15 -5 -3 -17 -6 -25 -6 -8 -1 -32 -9 -52 -18 -78 -35
-108 -47 -114 -46 -4 0 -10 -3 -13 -8 -3 -5 -28 -22 -56 -38 -27 -16 -55 -33
-62 -39 -31 -27 -43 -36 -48 -36 -18 0 -225 -207 -225 -225 0 -2 -13 -23 -29
-47 -16 -24 -44 -75 -62 -115 -29 -63 -53 -89 -83 -91 -5 0 -12 -4 -15 -9 -3
-5 -26 -20 -51 -34 -47 -25 -291 -187 -300 -198 -3 -4 -23 -20 -45 -37 -67
-49 -190 -160 -268 -243 -124 -129 -121 -126 -218 -251 -59 -75 -164 -230
-194 -285 -6 -11 -25 -45 -42 -75 -47 -86 -57 -105 -58 -110 -1 -3 -16 -36
-35 -75 -18 -38 -35 -79 -37 -90 -2 -10 -7 -22 -12 -25 -4 -3 -18 -36 -31 -75
-12 -38 -25 -74 -29 -80 -7 -12 -12 -34 -14 -57 -1 -10 -4 -18 -8 -18 -4 0
-10 -17 -15 -37 -9 -44 -11 -52 -14 -55 -1 -2 -3 -10 -5 -18 -2 -8 -6 -25 -9
-38 -19 -74 -55 -267 -60 -317 -3 -22 -5 -41 -6 -42 -2 -2 -4 -25 -5 -53 -1
-27 -4 -51 -5 -52 -5 -6 -6 -448 -1 -448 3 0 7 -24 8 -53 1 -28 4 -68 8 -87 3
-19 8 -55 10 -80 3 -25 11 -73 19 -107 7 -35 11 -63 9 -63 -3 0 -1 -6 4 -13 6
-6 11 -19 11 -27 1 -16 6 -36 14 -60 7 -17 37 -126 43 -152 2 -9 9 -27 16 -40
7 -13 12 -24 11 -25 -3 -5 2 -20 16 -56 7 -16 12 -31 12 -34 0 -5 10 -29 59
-137 17 -37 31 -74 31 -82 0 -8 4 -14 9 -14 5 0 15 -16 21 -35 6 -19 16 -35
22 -35 6 0 8 -3 5 -7 -4 -3 -2 -12 3 -18 6 -7 22 -34 36 -61 14 -27 53 -89 85
-137 32 -49 59 -93 59 -98 0 -5 4 -9 8 -9 4 0 15 -12 24 -28 9 -15 27 -39 40
-53 13 -14 42 -50 65 -80 52 -66 247 -266 326 -333 51 -43 73 -60 125 -101 7
-5 22 -18 33 -27 10 -10 22 -18 27 -18 4 0 20 -11 35 -25 15 -14 27 -23 27
-20 0 3 10 -3 22 -15 12 -11 27 -20 33 -20 7 0 20 -9 30 -20 10 -11 21 -17 25
-15 4 3 10 -2 14 -10 3 -8 10 -15 15 -15 5 0 48 -22 94 -49 47 -27 88 -47 91
-43 3 3 6 0 6 -6 0 -7 3 -11 8 -10 4 1 39 -13 77 -32 39 -19 72 -34 75 -35 3
0 15 -6 28 -13 12 -7 22 -10 22 -6 0 3 6 2 13 -3 6 -5 35 -17 62 -27 28 -10
59 -21 70 -26 17 -8 149 -48 180 -55 6 -1 17 -5 25 -8 8 -3 22 -5 30 -6 8 0
42 -7 75 -15 85 -22 176 -37 310 -53 60 -7 508 -9 598 -3 26 2 47 6 47 10 0 3
19 5 43 5 23 -1 47 1 52 5 6 4 17 8 25 8 8 0 29 3 45 6 17 3 46 8 65 12 19 3
42 10 51 15 9 4 18 6 21 4 3 -3 26 1 51 9 26 8 47 12 47 9 0 -3 7 0 15 7 9 7
18 10 22 7 3 -4 11 -3 17 1 6 5 40 17 76 27 36 10 70 22 76 27 7 5 20 11 30
13 37 8 139 49 145 58 4 5 12 6 18 3 6 -4 11 -3 11 1 0 9 72 43 90 43 6 0 10
5 10 11 0 5 4 8 9 5 5 -4 11 -3 13 1 1 5 23 18 48 30 49 24 122 65 130 73 3 3
19 12 35 20 17 8 36 21 43 28 8 6 23 17 35 24 22 11 208 146 217 157 3 3 34
31 70 61 88 74 320 310 306 310 -2 0 8 12 22 28 15 15 38 42 52 60 14 19 35
47 48 62 12 15 22 31 22 34 0 3 10 17 21 30 12 14 27 33 33 44 6 10 27 45 46
76 60 99 71 119 115 203 24 45 40 84 37 87 -3 4 -1 6 5 6 9 0 16 13 21 43 1 4
13 29 26 56 14 27 22 51 19 55 -4 3 0 6 7 6 7 0 11 3 7 6 -3 4 1 20 9 36 9 17
18 42 20 56 3 15 10 32 16 39 6 7 7 13 3 13 -4 0 -2 7 5 15 6 8 9 19 5 25 -3
5 -2 10 3 10 5 0 9 6 9 13 1 6 11 48 23 92 34 127 35 131 56 250 9 50 16 100
16 113 0 12 5 22 10 22 6 0 5 7 -2 15 -7 8 -9 15 -4 15 5 0 11 28 13 63 8 127
1 592 -9 592 -3 0 -7 26 -13 85 -4 30 -9 66 -12 80 -3 14 -8 39 -11 55 -3 17
-9 48 -15 70 -17 71 -21 90 -24 105 -1 8 -5 22 -8 30 -6 15 -40 131 -42 140 0
3 -3 10 -6 15 -4 6 -12 28 -19 50 -7 22 -19 56 -27 75 -8 19 -19 44 -23 55
-15 39 -140 291 -167 337 -61 101 -87 143 -92 148 -3 3 -24 32 -46 64 -22 33
-44 64 -50 70 -5 6 -26 32 -45 56 -33 44 -45 57 -110 130 -61 67 -109 115
-173 175 -94 88 -113 104 -207 175 -47 36 -87 68 -90 71 -3 3 -9 8 -15 10 -5
2 -42 25 -82 52 -39 26 -76 47 -82 47 -6 0 -11 4 -11 8 0 5 -22 19 -50 32 -27
13 -50 27 -50 32 0 5 -4 7 -9 4 -14 -9 -61 41 -61 66 0 13 -7 33 -15 44 -8 12
-11 24 -8 28 3 3 2 6 -4 6 -5 0 -18 19 -29 43 -10 23 -28 52 -39 64 -20 22
-63 75 -74 91 -5 7 -41 37 -150 127 -13 11 -32 28 -43 38 -10 9 -20 17 -23 17
-3 0 -11 5 -18 10 -7 6 -24 19 -39 31 -33 25 -35 46 -7 118 25 66 15 105 -23
97 -35 -8 -111 -36 -124 -47 -6 -5 -14 -6 -17 -3 -3 3 -12 2 -19 -2 -29 -19
-35 -12 -23 24 15 43 9 72 -16 72 -11 0 -19 -4 -19 -8 0 -4 -10 -9 -22 -9 -13
-1 -24 -7 -26 -12 -2 -5 -10 -7 -18 -4 -8 3 -14 0 -14 -7 0 -6 -4 -9 -9 -6 -4
3 -19 -3 -31 -14 -27 -24 -40 -25 -40 -5 0 8 5 15 11 15 5 0 8 4 5 9 -3 5 1
14 8 21 14 11 14 39 1 60 -9 14 -45 13 -45 -2z"/>
</g>
</svg>
